<svg xmlns="http://www.w3.org/2000/svg" height="2048" preserveAspectRatio="none" style="display: block;" version="1.1" viewBox="0 0 2048 2048" width="2048">
<path d="M 0 0 L 2048 0 L 2048 2048 L 0 2048 L 0 0 z" fill="rgb(245,237,224)" transform="translate(0,0)"></path>
<path d="M 1386.52 508.653 C 1389.18 422.568 1406.12 336.954 1431.06 254.902 C 1434.39 247.085 1415.76 249.372 1418.95 237.858 C 1424.65 217.295 1431.19 196.616 1438.27 176.499 C 1440.43 170.338 1446.58 170.453 1451.66 172.828 C 1456.42 178.266 1472.53 230.862 1473.64 241.098 C 1473.99 244.328 1465.73 248.716 1462.45 251.007 C 1463.4 258.401 1468.73 275.235 1470.95 282.938 C 1474.64 295.874 1478.05 308.887 1481.18 321.967 C 1495.65 381.01 1503.69 447.705 1506.16 508.288 C 1515.46 513.237 1522.52 518.096 1528.02 527.558 C 1532.83 535.678 1534.11 545.41 1531.57 554.499 C 1528.05 566.747 1519.76 573.088 1509.21 578.711 L 1512.1 728.058 C 1520.34 732.838 1527.08 739.066 1531.16 747.807 C 1535.32 756.778 1535.76 767.032 1532.37 776.324 C 1528.4 787.186 1521.27 793.349 1511.02 797.881 C 1510.95 851.189 1512.97 905.559 1513.22 959.243 C 1523.95 963.575 1532.86 970.443 1538.12 980.966 C 1542.72 990.222 1543.3 1000.97 1539.72 1010.67 C 1535.36 1022.52 1527.41 1029.1 1516.3 1034.06 C 1515.92 1077.79 1517.11 1134.92 1518.86 1178.3 C 1536.46 1178.6 1551.78 1178.34 1565.33 1191.89 C 1573.11 1199.67 1578.08 1209.53 1578.89 1220.45 C 1580.09 1236.73 1579.65 1254.59 1579.66 1270.98 L 1579.77 1368.57 L 1579.76 1715.36 C 1627.57 1727.14 1661.75 1762.57 1667.74 1811.94 C 1679.36 1811.73 1691.96 1810.3 1701.72 1817.3 C 1708.45 1822.21 1712.88 1829.67 1713.95 1837.94 C 1716 1854.24 1703.65 1870.77 1686.97 1871.56 C 1669.82 1872.36 1651.85 1871.91 1634.62 1871.92 L 1528.18 1871.92 L 1184.34 1871.89 L 635.21 1871.91 L 456.601 1871.9 C 426.199 1871.9 395.61 1871.98 365.197 1871.79 C 358.019 1871.75 350.047 1868.61 344.677 1863.77 C 338.491 1858.09 335.005 1850.05 335.086 1841.66 C 335.16 1813.22 359.719 1811.6 380.825 1812.02 C 382.96 1794.46 387.592 1780.91 397.212 1765.89 C 413.618 1739.91 439.832 1721.67 469.893 1715.31 L 469.915 1370.61 L 469.858 1271.3 C 469.85 1254.03 469.262 1235.21 470.823 1218.11 C 471.697 1208.54 477.193 1198.98 484.169 1192.37 C 499.527 1177.8 513.93 1178.52 532.868 1178.71 L 534.112 1033.96 C 524.779 1028.85 517.352 1023.52 512.325 1013.72 C 507.567 1004.56 506.859 993.834 510.371 984.13 C 515.254 970.716 524.737 964.106 537.018 958.677 L 538.702 798.206 C 530.234 793.978 523.747 788.925 519.166 780.388 C 514.592 771.961 513.617 762.043 516.465 752.887 C 520.195 741.033 528.312 733.543 538.937 727.928 C 538.733 677.977 539.179 628.026 540.276 578.087 C 532.03 573.215 526.423 569.197 521.775 560.526 C 517.367 552.161 516.525 542.37 519.44 533.376 C 523.594 520.675 532.221 514.536 543.285 508.618 C 544.415 493.784 544.803 478.888 546.063 463.999 C 552.285 390.449 567.763 320.579 588.894 250.085 C 581.757 249.112 573.708 246.812 575.277 237.349 C 577.261 229.078 580.027 217.929 583.197 210.078 C 587.163 200.257 591.276 176.864 599.053 170.923 C 602.521 170.956 607.905 171.023 609.744 174.724 C 612.214 179.934 613.871 185.84 615.553 191.388 C 620.18 206.648 625.494 221.737 629.693 237.115 C 630.176 238.885 629.947 240.792 629.269 242.479 C 627.159 247.727 621.503 248.086 617.08 250.895 L 618.182 249.867 L 617.24 250.469 C 618.386 257.146 622.414 268.073 624.395 274.959 C 628.504 289.247 632.8 303.412 636.206 317.907 C 651.333 380.381 660.105 444.223 662.391 508.461 C 672.543 513.538 680.484 519.007 685.73 529.677 C 690.007 538.181 690.625 548.063 687.439 557.033 C 683.433 568.19 676.177 573.907 665.991 578.619 C 666.999 628.333 667.727 678.053 668.174 727.776 C 698.59 746.242 701.205 780.931 668.036 797.673 L 670.402 958.638 C 680.532 962.803 689.377 968.503 695.135 978.155 C 700.134 986.548 701.578 996.588 699.146 1006.05 C 695.147 1021.35 685.558 1027.55 673.108 1034.67 C 674.137 1051.52 673.783 1070.94 674.019 1088 C 674.617 1118.16 675.054 1148.31 675.33 1178.48 C 698.65 1178.3 721.971 1178.3 745.292 1178.48 C 745.569 1143.93 745.583 1109.38 745.333 1074.83 C 745.13 1037.17 735.437 987.371 789.103 987.512 L 789.045 968.12 C 752.832 919.678 760.082 841.194 783.501 789.315 C 819.646 709.246 911.316 636.709 991.945 605.47 C 980.882 581.784 994.527 565.52 1014.81 554.709 L 1015.05 529.256 C 992.788 523.88 975.422 514.18 963.895 493.875 C 943.568 458.068 958.968 412.594 994.269 393.055 C 1002.08 388.733 1021.02 379.79 1026.08 391.625 C 1029.65 399.995 1019.06 403.971 1015.21 409.45 C 997.593 433.337 1005.61 467.817 1035.86 475.358 C 1055.98 480.375 1069.15 470.951 1084.07 459.797 C 1086.66 457.862 1090.42 457.782 1093.52 458.561 C 1102.63 466.943 1092.82 488.645 1087.15 497.668 C 1075.33 516.504 1058.06 524.6 1036.94 529.352 L 1037.06 555.268 C 1058.85 565.959 1068.38 581.992 1060.15 605.776 C 1088 617.893 1114.62 632.657 1139.65 649.867 C 1207.73 696.842 1267.44 759.379 1281.99 843.709 C 1290.09 890.636 1285.67 931.326 1258.38 970.725 L 1258.45 987.321 C 1259.49 987.29 1260.54 987.268 1261.58 987.254 C 1313.12 986.672 1304.38 1037.68 1304.41 1073.06 L 1304.54 1178.5 C 1327.21 1178.21 1350.51 1178.49 1373.22 1178.52 L 1374.89 1033.17 C 1365.36 1028.29 1357.99 1022.64 1353.44 1012.53 C 1349.11 1003.01 1348.92 992.127 1352.91 982.464 C 1357.98 970.317 1366.92 964.404 1378.36 959.56 C 1378.11 905.936 1379.84 851.193 1379.83 797.155 C 1372.66 792.688 1368.18 789.505 1363.46 782 C 1358.25 773.796 1356.64 763.807 1359.02 754.383 C 1362.26 741.663 1370.19 734.767 1380.66 728.241 C 1381.05 678.102 1381.75 627.966 1382.77 577.836 C 1374.75 573.315 1369.24 569.274 1364.7 561.044 C 1360.14 552.703 1359.22 542.85 1362.15 533.807 C 1366.37 520.865 1375.24 514.618 1386.52 508.653 z" fill="rgb(22,35,63)" transform="translate(0,0)"></path>
<path d="M 813.368 948.006 C 795.186 905.144 798.034 846.758 817.232 804.841 C 854.308 723.889 942.053 661.55 1022.97 630.142 C 1107.45 662.316 1217.44 742.932 1239.08 834.525 C 1247.01 873.929 1248.53 909.539 1233.48 948.059 L 1162 948.065 L 813.368 948.006 z" fill="rgb(232,176,74)" transform="translate(0,0)"></path>
<path d="M 1523.09 1755.8 C 1555.95 1755.52 1580.91 1752.23 1606.95 1777.33 C 1617.22 1787.23 1622.66 1798.45 1626.66 1811.97 L 422.152 1812.02 C 423.662 1806.96 424.968 1801.84 427.224 1797.08 C 431.161 1789.6 435.057 1784.05 441.062 1778.06 C 452.707 1766.34 467.926 1758.82 484.318 1756.7 C 495.019 1755.42 511.154 1755.91 522.303 1755.95 L 579.643 1755.93 L 795.953 1755.94 L 1523.09 1755.8 z" fill="rgb(232,176,74)" transform="translate(0,0)"></path>
<path d="M 1023.61 1345.73 C 1025.01 1346.12 1025.45 1346.08 1026.51 1346.8 C 1053.99 1365.3 1098 1396.4 1117.94 1422.43 C 1124.69 1431.06 1129.65 1440.96 1132.53 1451.54 C 1140.02 1479.78 1128.18 1506.64 1105.77 1524.28 C 1099.35 1529.33 1086.83 1537.47 1083.17 1543.8 C 1087.08 1548.99 1094.26 1554.8 1099.18 1559.51 C 1118.44 1577.95 1113.65 1611.13 1113.62 1636.21 L 1113.6 1710.82 L 1024.5 1710.88 L 932.382 1710.95 C 932.412 1685.75 929.14 1594.76 936.672 1577.01 C 943.076 1561.92 962.681 1548.82 964.534 1542.89 C 961.371 1535.09 949.111 1530.45 942.574 1524.5 C 936.654 1519.11 932.049 1514.51 927.413 1507.87 C 916.764 1492.88 912.575 1474.24 915.787 1456.13 C 923.652 1413.63 989.399 1369.36 1023.61 1345.73 z" fill="rgb(245,237,224)" transform="translate(0,0)"></path>
<path d="M 837.397 1220.5 L 1153.88 1220.66 L 1255.72 1220.63 C 1274.2 1220.63 1297.17 1220 1315.26 1221.18 C 1330.07 1229.81 1327.93 1238.07 1328.04 1253.54 C 1328.14 1268.54 1328.03 1283.59 1328.01 1298.58 L 1328 1425.15 L 1228.09 1425.08 L 1228.15 1341.03 C 1228.15 1311.46 1233.91 1284.84 1208.7 1264.25 C 1198.04 1257.71 1192.89 1255.49 1179.94 1255.36 C 1157.51 1255.14 1135.01 1255.21 1112.59 1255.22 L 979.347 1255.35 L 905.991 1255.21 C 875.344 1255.15 834.688 1249.8 825.582 1291.68 C 822.542 1305.66 824.181 1325.22 824.173 1339.96 L 824.08 1425.23 L 724.722 1425.01 C 724.941 1362.14 723.79 1296.21 725.034 1233.62 C 728.898 1226.88 732.729 1221.61 741.034 1220.93 C 751.89 1220.03 763.077 1220.52 773.98 1220.54 L 837.397 1220.5 z" fill="rgb(232,176,74)" transform="translate(0,0)"></path>
<path d="M 522.051 1326.83 L 680.236 1326.9 L 680.358 1645.2 L 522.149 1645.11 L 522.051 1326.83 z" fill="rgb(232,176,74)" transform="translate(0,0)"></path>
<path d="M 1370.95 1326.86 L 1528.05 1326.98 L 1528.08 1645.1 L 1371.01 1645.21 L 1370.95 1326.86 z" fill="rgb(232,176,74)" transform="translate(0,0)"></path>
<path d="M 860.435 1299.28 L 1188.77 1299.66 L 1188.83 1710.81 L 1158.36 1710.84 L 1158.29 1643.66 C 1158.32 1627.27 1158.43 1610.85 1158.13 1594.46 C 1157.69 1570.29 1150.54 1557.26 1134.11 1540.37 C 1135.1 1539.36 1136.08 1538.33 1137.05 1537.29 C 1156.2 1516.64 1165.9 1494.43 1164.34 1466.03 C 1162.2 1427.07 1144.93 1407.14 1117.62 1382.1 C 1092.26 1358.57 1053.41 1332.97 1024.43 1314.93 C 987.311 1338.24 953.359 1360.68 921.429 1391.17 C 898.58 1412.99 884.404 1438.44 884.018 1470.72 C 883.667 1500.1 895.076 1519.69 914.896 1540.08 C 883.283 1572.8 890.279 1597.63 890.393 1640.34 C 890.563 1663.85 890.552 1687.36 890.36 1710.86 L 860.152 1710.76 L 860.435 1299.28 z" fill="rgb(245,237,224)" transform="translate(0,0)"></path>
<path d="M 1227.94 1442.91 L 1328.14 1442.93 L 1328.31 1577.43 C 1328.32 1586.5 1328.1 1595.61 1328.17 1604.67 C 1328.31 1621.38 1325.1 1639.47 1337.81 1652.57 C 1342.86 1657.87 1349.43 1661.47 1356.61 1662.88 C 1366.66 1664.77 1400.42 1664.05 1413.01 1664.05 L 1528.04 1664.02 L 1528.08 1710.89 L 1227.96 1710.84 L 1227.94 1442.91 z" fill="rgb(245,237,224)" transform="translate(0,0)"></path>
<path d="M 724.585 1442.94 L 824.213 1442.95 L 824.406 1710.75 L 623.5 1710.86 L 521.995 1710.81 L 522.051 1663.89 L 639.163 1664.01 C 657.957 1664.05 678.514 1664.96 696.917 1662.82 C 709.902 1660.25 722.552 1647.55 723.769 1634.49 C 725.458 1616.36 724.549 1597.83 724.627 1579.79 L 724.585 1442.94 z" fill="rgb(245,237,224)" transform="translate(0,0)"></path>
<path d="M 777.948 1007.02 C 792.73 1005.98 815.636 1006.71 831.18 1006.74 L 927.061 1006.83 L 1235.94 1006.76 C 1245.99 1006.6 1274.57 1004.66 1280.1 1011.42 C 1288.66 1021.88 1285.81 1065.88 1285.81 1078.36 L 1285.65 1178.53 L 1244.4 1178.53 L 1244.43 1128.26 C 1244.53 1107.24 1247.46 1088.27 1235.81 1069.81 C 1232.85 1066.25 1228.99 1062.12 1225.3 1059.29 C 1214.48 1050.91 1200.75 1047.24 1187.2 1049.1 C 1170.68 1051.35 1160.77 1059.33 1150.96 1071.75 C 1129.59 1040.39 1087.86 1040.76 1065.82 1071.34 C 1040.25 1041.22 1004.99 1039.55 980.022 1071.28 C 957.671 1040.76 917.776 1040.64 895.514 1071.31 C 893.526 1068.68 890.357 1064.78 887.979 1062.5 C 878.597 1053.47 866.032 1048.51 853.013 1048.69 C 839.167 1048.81 826.007 1053.65 816.296 1063.74 C 810.478 1069.71 806.335 1077.1 804.286 1085.18 C 801.536 1096.4 802.774 1163.85 802.81 1178.52 L 764.165 1178.51 L 764.062 1073.39 C 764.055 1057.28 763.192 1036.64 765.377 1020.89 C 766.289 1014.31 772.688 1010.28 777.948 1007.02 z" fill="rgb(232,176,74)" transform="translate(0,0)"></path>
<path d="M 1400.98 799.873 C 1417.8 799.747 1434.61 799.83 1451.43 800.121 C 1464.39 799.956 1477.35 799.949 1490.32 800.098 C 1491.2 852.55 1491.82 905.006 1492.17 957.464 L 1464.9 957.303 L 1399.72 957.428 L 1400.98 799.873 z" fill="rgb(232,176,74)" transform="translate(0,0)"></path>
<path d="M 1395.46 1040.66 L 1465.67 1040.81 L 1495.64 1040.88 L 1497.05 1128 C 1497.27 1144.35 1496.87 1162.7 1497.58 1178.84 L 1427.6 1178.8 C 1421.33 1178.79 1399.4 1179.09 1394.31 1178.21 L 1395.46 1040.66 z" fill="rgb(232,176,74)" transform="translate(0,0)"></path>
<path d="M 560.05 800.661 C 568.173 799.49 584.034 799.854 592.666 799.875 L 647.96 800.102 C 649.098 852.57 649.73 905.048 649.854 957.528 L 623.884 957.415 L 558.952 957.352 L 560.05 800.661 z" fill="rgb(232,176,74)" transform="translate(0,0)"></path>
<path d="M 529.874 1219.98 C 569.938 1219.09 611.027 1220.49 650.593 1219.85 C 683.656 1219.31 680.565 1225.36 680.024 1254.54 C 679.721 1270.96 681.292 1290.76 679.715 1306.86 C 677.886 1308.77 677.83 1308.11 674.25 1308.28 L 522.111 1308.27 C 521.925 1283.78 520.914 1253.96 522.754 1229.54 C 523.089 1225.08 526.422 1222.41 529.874 1219.98 z" fill="rgb(245,237,224)" transform="translate(0,0)"></path>
<path d="M 1378.86 1220.13 C 1384.91 1219.74 1391.5 1219.93 1397.62 1219.94 C 1436.88 1220 1476.19 1219.57 1515.44 1220.08 C 1524.92 1220.2 1528.11 1227.41 1528.2 1235.84 C 1528.43 1258.92 1527.6 1282.07 1528.17 1305.13 C 1528.22 1306.97 1527.56 1307.08 1526.42 1308.37 L 1522.25 1308.57 C 1471.86 1308.19 1421.46 1308.09 1371.07 1308.28 C 1371.09 1291.99 1371.03 1275.7 1370.89 1259.4 C 1370.82 1250.13 1370.54 1240.41 1371.2 1231.18 C 1371.61 1225.52 1374.67 1223.47 1378.86 1220.13 z" fill="rgb(245,237,224)" transform="translate(0,0)"></path>
<path d="M 555.273 1040.7 L 624.484 1040.78 L 653.512 1040.75 L 654.915 1178.79 L 591.088 1178.77 C 581.161 1178.76 565.057 1179.18 555.642 1178.4 C 555.165 1177.95 554.688 1177.51 554.211 1177.07 L 555.273 1040.7 z" fill="rgb(232,176,74)" transform="translate(0,0)"></path>
<path d="M 1403.7 581.714 C 1410.16 580.819 1418.27 580.926 1424.88 581.04 C 1446.19 581.41 1467.87 580.702 1489.14 581.446 C 1489.84 628.893 1491.25 677.742 1491.15 725.082 L 1464.46 725.071 L 1401.89 724.951 C 1401.59 677.762 1403.2 629.056 1403.7 581.714 z" fill="rgb(232,176,74)" transform="translate(0,0)"></path>
<path d="M 599.254 581.293 C 614.713 581.118 630.175 581.133 645.634 581.338 L 647.473 725.109 L 591.78 724.997 C 584.136 725.002 567.273 725.414 560.277 724.539 C 559.488 678.301 561.14 627.988 561.277 581.16 L 599.254 581.293 z" fill="rgb(232,176,74)" transform="translate(0,0)"></path>
<path d="M 1447.2 271.468 C 1468.15 337.511 1484.74 440.031 1485.33 508.451 L 1464.24 508.425 L 1406.94 508.229 C 1408.31 451.293 1420.84 378.317 1433.52 322.886 C 1437.17 304.866 1441.87 289.085 1447.2 271.468 z" fill="rgb(232,176,74)" transform="translate(0,0)"></path>
<path d="M 595.021 305.066 C 597.496 294.511 600.442 284.071 603.849 273.778 C 624.514 351.109 640.339 427.9 642.441 508.362 L 622.878 508.394 L 563.898 508.224 C 564.58 455.383 580.802 357.241 595.021 305.066 z" fill="rgb(232,176,74)" transform="translate(0,0)"></path>
<path d="M 1105.54 1066.28 C 1144.32 1064.98 1141.09 1100.39 1140.88 1127.04 C 1140.75 1144.1 1140.7 1161.16 1140.75 1178.23 L 1111.86 1178.17 L 1076.14 1178.25 L 1075.81 1123.51 C 1075.67 1097.51 1072.63 1072.29 1105.54 1066.28 z" fill="rgb(232,176,74)" transform="translate(0,0)"></path>
<path d="M 850.984 1066.38 C 889.749 1067.94 885.847 1099.31 885.609 1127.54 L 885.297 1178.28 L 858.25 1178.19 L 821.081 1178.09 L 820.799 1124.82 C 820.764 1116.34 820.292 1101.68 821.439 1093.97 C 822.214 1088.48 824.307 1083.27 827.539 1078.76 C 833.807 1070.21 840.991 1067.78 850.984 1066.38 z" fill="rgb(232,176,74)" transform="translate(0,0)"></path>
<path d="M 1019.37 1066.34 C 1059.01 1064.9 1055.19 1100.55 1055.04 1127.63 L 1055.02 1178.13 L 1026.5 1178.17 L 990.698 1178.15 L 990.319 1124.47 C 990.266 1116.29 989.814 1101.49 991.023 1093.75 C 991.773 1088.83 993.606 1084.15 996.389 1080.02 C 1002.28 1071.32 1009.52 1068.31 1019.37 1066.34 z" fill="rgb(232,176,74)" transform="translate(0,0)"></path>
<path d="M 934.474 1066.26 C 944.343 1066.04 954.069 1068.79 961.06 1076.02 C 965.205 1080.4 968.055 1085.83 969.292 1091.73 C 970.977 1099.61 970.271 1119.17 970.185 1128.41 L 969.957 1178.18 L 942.5 1178.14 L 905.777 1178.14 C 905.909 1159.52 905.542 1140.82 905.584 1122.21 C 905.6 1114.73 905.075 1100.76 906.127 1093.78 C 906.85 1088.88 908.646 1084.19 911.389 1080.07 C 917.308 1071.14 924.471 1068.23 934.474 1066.26 z" fill="rgb(232,176,74)" transform="translate(0,0)"></path>
<path d="M 1186.37 1067.14 C 1197.46 1066.08 1208.55 1067.07 1216.88 1075.38 C 1221.06 1079.63 1223.95 1084.98 1225.19 1090.81 C 1226.97 1098.75 1226.17 1114.29 1226.15 1123.22 L 1226.06 1178.16 L 1202.5 1178.18 L 1161.98 1178.23 C 1161.91 1159.75 1158.95 1097.52 1164.88 1084.18 C 1168.91 1075.09 1177.46 1070.37 1186.37 1067.14 z" fill="rgb(232,176,74)" transform="translate(0,0)"></path>
<path d="M 1431.44 1005.77 C 1416.46 1005.97 1390.27 1008.41 1376.26 1002.73 C 1367.24 999.067 1372.64 983.581 1381.77 982.587 C 1394.22 981.232 1407.44 981.791 1420.16 981.8 L 1494.71 981.914 C 1498.97 981.879 1506.68 981.407 1510.34 983.213 C 1526.65 991.247 1520.02 1005.09 1504.5 1005.59 C 1480.54 1006.35 1455.39 1006.47 1431.44 1005.77 z" fill="rgb(232,176,74)" transform="translate(0,0)"></path>
<path d="M 539.63 1005.16 C 525.031 1001.7 527.866 983.552 542.373 982.416 C 554.686 981.451 566.898 981.809 579.246 981.804 L 652.788 981.837 C 660.026 981.825 667.828 980.747 673.146 985.984 C 675.481 988.286 676.775 991.441 676.73 994.72 C 676.607 1000.16 671.221 1005.53 665.718 1005.72 C 645.555 1006.41 625.267 1005.77 605.083 1005.9 C 587.373 1005.22 555.576 1007.21 539.63 1005.16 z" fill="rgb(232,176,74)" transform="translate(0,0)"></path>
<path d="M 986.196 419.96 L 995.622 411.274 C 993.424 417.607 991.559 422.867 989.946 429.385 C 989.704 448.068 991.56 462.052 1005.16 476.208 C 1022.51 494.266 1046.65 495.404 1069.14 488.255 L 1073.57 486.531 L 1074.72 487.287 C 1073.59 489.993 1073.67 489.904 1071.78 492.127 C 1061.88 504.062 1048.98 511.772 1033.45 513.567 C 1018.58 515.307 1003.64 511.021 991.955 501.667 C 980.2 492.456 972.7 478.856 971.183 463.999 C 969.42 446.075 975.409 433.293 986.196 419.96 z" fill="rgb(232,176,74)" transform="translate(0,0)"></path>
<path d="M 546.614 770.194 C 532.89 765.637 537.252 749.164 550.118 748.031 C 561.057 747.068 572.179 747.426 583.17 747.444 L 647.429 747.578 C 653.825 747.577 660.725 746.724 665.804 751.2 C 673.201 757.513 669.027 769.067 659.811 770.302 C 654.776 770.977 650.066 770.991 644.993 770.986 C 614.32 770.956 583.646 770.936 552.974 770.753 C 550.882 770.741 548.688 770.46 546.614 770.194 z" fill="rgb(232,176,74)" transform="translate(0,0)"></path>
<path d="M 1388.72 770.238 C 1384.65 768.21 1381.54 765.38 1381.13 760.493 C 1379.66 743.026 1413.31 747.564 1425.55 747.586 L 1490.68 747.771 C 1499.41 747.683 1502.36 746.828 1509.52 753.175 C 1518.5 761.14 1508.91 770.321 1500.12 770.733 C 1482.22 771.574 1463.43 770.73 1445.45 770.99 C 1430.29 770.486 1402.62 772.064 1388.72 770.238 z" fill="rgb(232,176,74)" transform="translate(0,0)"></path>
<path d="M 548.944 551.138 C 536.038 547.794 538.379 531.622 549.592 530.17 C 560.134 528.805 572.946 529.411 583.808 529.473 L 643.908 529.797 C 651.995 529.719 656.842 528.692 663.075 534.756 C 671.041 542.462 663.985 549.642 655.415 550.977 C 649.924 551.833 644.894 551.762 639.285 551.744 C 610.037 551.651 580.744 551.821 551.5 551.468 C 551.175 551.464 549.355 551.191 548.944 551.138 z" fill="rgb(232,176,74)" transform="translate(0,0)"></path>
<path d="M 1487.94 529.733 C 1518.52 529.524 1515.26 551.605 1491.78 551.785 C 1476.93 551.899 1456.41 552.472 1441.8 551.19 C 1434.06 551.939 1389.92 553.252 1386.54 548.255 C 1370.18 524.1 1416.9 529.641 1428.38 529.683 L 1487.94 529.733 z" fill="rgb(232,176,74)" transform="translate(0,0)"></path>
<path d="M 1019.93 573.06 C 1025.72 571.069 1032.13 572.344 1036.72 576.398 C 1041.31 580.451 1043.36 586.659 1042.1 592.648 C 1040.83 598.638 1036.44 603.485 1030.61 605.339 C 1021.74 608.159 1012.25 603.316 1009.32 594.476 C 1006.4 585.636 1011.13 576.088 1019.93 573.06 z" fill="rgb(232,176,74)" transform="translate(0,0)"></path>
<path d="M 1445.48 211.649 C 1447.97 213.95 1452.73 229.159 1453.02 233.34 C 1453.07 234.075 1449.45 234.164 1449.25 234.177 C 1433.04 233.985 1439.42 231.174 1445.48 211.649 z" fill="rgb(232,176,74)" transform="translate(0,0)"></path>
<path d="M 602.228 211.659 C 605.294 215.008 607.851 227.367 609.669 232.052 C 610.362 233.838 606.931 233.778 606.249 233.792 C 604.455 233.775 597.354 234.052 596.466 233.336 C 595.646 231.358 601.103 214.693 602.228 211.659 z" fill="rgb(232,176,74)" transform="translate(0,0)"></path>
<metadata><recraft-signature>{"signed_by": "recraft", "signature_b64": "6OzFgoEzJVMPtExaM14+Oc4neAvIEmbLmWF5B33zqXcPq78rkiQlM6cMnC0xDxsfjFyU+WfpB2Dm0w6N3jzyBg==", "signing_algo": "Ed25519", "generation_timestamp": 1783498511, "identifier": "c6290596-a0a7-4e6d-954d-06bddd6abafb"}</recraft-signature></metadata></svg>