<svg xmlns="http://www.w3.org/2000/svg" viewBox="0 0 64 64" width="128" height="128" role="img" aria-label="Cihan Puanı madalyonu"><title>Cihan Puanı madalyonu</title><defs><linearGradient id="r-cp-madalyon-v" x1="0" y1="0" x2="0.7" y2="1"><stop offset="0" stop-color="#EDD9A3"/><stop offset=".42" stop-color="#C9A55A"/><stop offset=".78" stop-color="#A5813C"/><stop offset="1" stop-color="#8A672B"/></linearGradient><linearGradient id="r-cp-madalyon-v2" x1="0.2" y1="0" x2="0.8" y2="1"><stop offset="0" stop-color="#EDD9A3"/><stop offset=".42" stop-color="#C9A55A"/><stop offset=".78" stop-color="#A5813C"/><stop offset="1" stop-color="#8A672B"/></linearGradient><radialGradient id="r-cp-madalyon-z" cx=".5" cy=".38" r=".62"><stop offset="0" stop-color="#1A2A4C"/><stop offset="1" stop-color="#0E1729"/></radialGradient><mask id="r-cp-madalyong-m" maskUnits="userSpaceOnUse" x="-4" y="-4" width="72" height="72"><rect x="-4" y="-4" width="72" height="72" fill="#fff"/><g fill="#000"><circle cx="32" cy="32" r="21.5" fill="none" stroke="#000" stroke-width="1.2"/><circle cx="32" cy="32" r="18.4"/><circle cx="36.97" cy="6.99" r="0.85"/><circle cx="46.17" cy="10.8" r="0.85"/><circle cx="53.2" cy="17.83" r="0.85"/><circle cx="57.01" cy="27.03" r="0.85"/><circle cx="57.01" cy="36.97" r="0.85"/><circle cx="53.2" cy="46.17" r="0.85"/><circle cx="46.17" cy="53.2" r="0.85"/><circle cx="36.97" cy="57.01" r="0.85"/><circle cx="27.03" cy="57.01" r="0.85"/><circle cx="17.83" cy="53.2" r="0.85"/><circle cx="10.8" cy="46.17" r="0.85"/><circle cx="6.99" cy="36.97" r="0.85"/><circle cx="6.99" cy="27.03" r="0.85"/><circle cx="10.8" cy="17.83" r="0.85"/><circle cx="17.83" cy="10.8" r="0.85"/><circle cx="27.03" cy="6.99" r="0.85"/></g></mask></defs><circle cx="32" cy="32" r="31" fill="url(#r-cp-madalyon-v)"/><circle cx="32" cy="32" r="28.05" fill="url(#r-cp-madalyon-z)" stroke="#3B2A10" stroke-width="0.5" stroke-opacity="0.7"/><g fill="#5B4318" opacity=".75"><circle cx="61.54" cy="32" r="0.55"/><circle cx="60.54" cy="39.65" r="0.55"/><circle cx="57.58" cy="46.77" r="0.55"/><circle cx="52.89" cy="52.89" r="0.55"/><circle cx="46.77" cy="57.58" r="0.55"/><circle cx="39.65" cy="60.54" r="0.55"/><circle cx="32" cy="61.54" r="0.55"/><circle cx="24.35" cy="60.54" r="0.55"/><circle cx="17.23" cy="57.58" r="0.55"/><circle cx="11.11" cy="52.89" r="0.55"/><circle cx="6.42" cy="46.77" r="0.55"/><circle cx="3.46" cy="39.65" r="0.55"/><circle cx="2.46" cy="32" r="0.55"/><circle cx="3.46" cy="24.35" r="0.55"/><circle cx="6.42" cy="17.23" r="0.55"/><circle cx="11.11" cy="11.11" r="0.55"/><circle cx="17.23" cy="6.42" r="0.55"/><circle cx="24.35" cy="3.46" r="0.55"/><circle cx="32" cy="2.46" r="0.55"/><circle cx="39.65" cy="3.46" r="0.55"/><circle cx="46.77" cy="6.42" r="0.55"/><circle cx="52.89" cy="11.11" r="0.55"/><circle cx="57.58" cy="17.23" r="0.55"/><circle cx="60.54" cy="24.35" r="0.55"/></g><circle cx="32" cy="32" r="26.04" fill="none" stroke="#C9A55A" stroke-width="0.45" opacity="0.8"/><g transform="translate(32 32) scale(0.7) translate(-32 -32)"><g color="#E9D39C" fill="url(#r-cp-madalyon-v2)"><g mask="url(#r-cp-madalyong-m)"><path d="M32 6.8 Q34.02 2.67 37.85 2.58 Q41.36 4.13 41.64 8.72 Q45.09 5.67 48.67 7.06 Q51.31 9.83 49.82 14.18 Q54.17 12.69 56.94 15.33 Q58.33 18.91 55.28 22.36 Q59.87 22.64 61.42 26.15 Q61.33 29.98 57.2 32 Q61.33 34.02 61.42 37.85 Q59.87 41.36 55.28 41.64 Q58.33 45.09 56.94 48.67 Q54.17 51.31 49.82 49.82 Q51.31 54.17 48.67 56.94 Q45.09 58.33 41.64 55.28 Q41.36 59.87 37.85 61.42 Q34.02 61.33 32 57.2 Q29.98 61.33 26.15 61.42 Q22.64 59.87 22.36 55.28 Q18.91 58.33 15.33 56.94 Q12.69 54.17 14.18 49.82 Q9.83 51.31 7.06 48.67 Q5.67 45.09 8.72 41.64 Q4.13 41.36 2.58 37.85 Q2.67 34.02 6.8 32 Q2.67 29.98 2.58 26.15 Q4.13 22.64 8.72 22.36 Q5.67 18.91 7.06 15.33 Q9.83 12.69 14.18 14.18 Q12.69 9.83 15.33 7.06 Q18.91 5.67 22.36 8.72 Q22.64 4.13 26.15 2.58 Q29.98 2.67 32 6.8 Z"/></g></g><g color="#E9D39C" fill="currentColor"><circle cx="32" cy="32" r="15.8"/></g></g></svg>
