<svg xmlns="http://www.w3.org/2000/svg" viewBox="0 0 64 64" width="128" height="128" role="img" aria-label="Han"><title>Han</title><defs><linearGradient id="r-han-v" x1="0" y1="0" x2="0.7" y2="1"><stop offset="0" stop-color="#EDD9A3"/><stop offset=".42" stop-color="#C9A55A"/><stop offset=".78" stop-color="#A5813C"/><stop offset="1" stop-color="#8A672B"/></linearGradient><linearGradient id="r-han-v2" x1="0.2" y1="0" x2="0.8" y2="1"><stop offset="0" stop-color="#EDD9A3"/><stop offset=".42" stop-color="#C9A55A"/><stop offset=".78" stop-color="#A5813C"/><stop offset="1" stop-color="#8A672B"/></linearGradient><radialGradient id="r-han-z" cx=".5" cy=".38" r=".62"><stop offset="0" stop-color="#1A2A4C"/><stop offset="1" stop-color="#0E1729"/></radialGradient><mask id="r-hang-m" maskUnits="userSpaceOnUse" x="-4" y="-4" width="72" height="72"><rect x="-4" y="-4" width="72" height="72" fill="#fff"/><g fill="#000"><path d="M27 58 V36.2 C27 31.8 30.2 30.2 32 30 C33.8 30.2 37 31.8 37 36.2 V58 Z"/><path d="M9.5 42 V37.48 C9.5 35.72 10.78 35.08 11.5 35 C12.22 35.08 13.5 35.72 13.5 37.48 V42 Z"/><rect x="9.5" y="47" width="4" height="5"/><path d="M15.5 42 V37.48 C15.5 35.72 16.78 35.08 17.5 35 C18.22 35.08 19.5 35.72 19.5 37.48 V42 Z"/><rect x="15.5" y="47" width="4" height="5"/><path d="M44.5 42 V37.48 C44.5 35.72 45.78 35.08 46.5 35 C47.22 35.08 48.5 35.72 48.5 37.48 V42 Z"/><rect x="44.5" y="47" width="4" height="5"/><path d="M50.5 42 V37.48 C50.5 35.72 51.78 35.08 52.5 35 C53.22 35.08 54.5 35.72 54.5 37.48 V42 Z"/><rect x="50.5" y="47" width="4" height="5"/><path d="M6 44.2 H23.5 M40.5 44.2 H58" fill="none" stroke="#000" stroke-width="0.9" stroke-linecap="round" stroke-linejoin="round"/><path d="M25.5 25.5 H38.5" fill="none" stroke="#000" stroke-width="0.8" stroke-linecap="round" stroke-linejoin="round"/></g></mask></defs><circle cx="32" cy="32" r="31" fill="url(#r-han-v)"/><circle cx="32" cy="32" r="28.05" fill="url(#r-han-z)" stroke="#3B2A10" stroke-width="0.5" stroke-opacity="0.7"/><g fill="#5B4318" opacity=".75"><circle cx="61.54" cy="32" r="0.55"/><circle cx="60.54" cy="39.65" r="0.55"/><circle cx="57.58" cy="46.77" r="0.55"/><circle cx="52.89" cy="52.89" r="0.55"/><circle cx="46.77" cy="57.58" r="0.55"/><circle cx="39.65" cy="60.54" r="0.55"/><circle cx="32" cy="61.54" r="0.55"/><circle cx="24.35" cy="60.54" r="0.55"/><circle cx="17.23" cy="57.58" r="0.55"/><circle cx="11.11" cy="52.89" r="0.55"/><circle cx="6.42" cy="46.77" r="0.55"/><circle cx="3.46" cy="39.65" r="0.55"/><circle cx="2.46" cy="32" r="0.55"/><circle cx="3.46" cy="24.35" r="0.55"/><circle cx="6.42" cy="17.23" r="0.55"/><circle cx="11.11" cy="11.11" r="0.55"/><circle cx="17.23" cy="6.42" r="0.55"/><circle cx="24.35" cy="3.46" r="0.55"/><circle cx="32" cy="2.46" r="0.55"/><circle cx="39.65" cy="3.46" r="0.55"/><circle cx="46.77" cy="6.42" r="0.55"/><circle cx="52.89" cy="11.11" r="0.55"/><circle cx="57.58" cy="17.23" r="0.55"/><circle cx="60.54" cy="24.35" r="0.55"/></g><circle cx="32" cy="32" r="26.04" fill="none" stroke="#C9A55A" stroke-width="0.45" opacity="0.8"/><g transform="translate(32 32) scale(0.7) translate(-32 -32)"><g color="#E9D39C" fill="url(#r-han-v2)"><g mask="url(#r-hang-m)"><rect x="6" y="31" width="52" height="27"/><rect x="23.5" y="21" width="17" height="37"/><rect x="24.35" y="19" width="1.7" height="2.3"/><rect x="27.75" y="19" width="1.7" height="2.3"/><rect x="31.15" y="19" width="1.7" height="2.3"/><rect x="34.55" y="19" width="1.7" height="2.3"/><rect x="37.95" y="19" width="1.7" height="2.3"/><rect x="8.22" y="29.8" width="8.57" height="1.2"/><path d="M8.3 29.8 A4.2 3.86 0 0 1 16.7 29.8 Z"/><rect x="47.22" y="29.8" width="8.57" height="1.2"/><path d="M47.3 29.8 A4.2 3.86 0 0 1 55.7 29.8 Z"/><rect x="19" y="26" width="2" height="5"/><rect x="43" y="26" width="2" height="5"/><rect x="18.4" y="25.2" width="3.2" height="1.2"/><rect x="42.4" y="25.2" width="3.2" height="1.2"/></g></g></g></svg>
